<?xml version="1.0" encoding="UTF-8"?>
<svg xmlns="http://www.w3.org/2000/svg" viewBox="0 0 500 500" width="500" height="500">
<path d="M140.5 35.43C145.3 36.78 151.27 35.97 156.25 36.04C168.41 36.21 180.59 36.12 192.75 36.03C227.92 35.79 263.08 35.91 298.25 36.09C312.08 36.16 325.92 36.14 339.75 36.14C345.35 36.14 353.26 37.49 358.5 35.49C405.64 75.33 452.78 115.16 499.92 155C499.92 156 499.92 157 499.92 158C458.94 209.52 417.97 261.04 377 312.56C375.67 314.21 374.35 315.85 373.02 317.5C331.93 369.67 290.84 421.83 249.75 474C238.66 460 227.58 446 216.49 432C215.49 430.69 214.5 429.37 213.5 428.06C142.36 338.37 71.22 248.69 0.08 159C0.08 157.5 0.08 156 0.08 154.5C46.89 114.81 93.69 75.12 140.5 35.43ZM147.54 65C110.69 96.42 73.85 127.83 37 159.25C37.05 163.77 47.71 173.87 50.73 178.02C61.99 193.44 74.98 207.59 86.23 223.02C91.75 230.58 98.22 237.46 103.73 245.02C128.05 278.34 155.92 309.12 180.27 342.48C186.33 350.8 193.67 358.2 199.73 366.52C210.36 381.08 222.61 394.45 233.23 409.02C236.87 414 241.1 418.53 244.73 423.52C246.1 425.39 247.75 428.45 249.75 429.5C275.5 397.15 301.25 364.8 327 332.45C328.17 330.97 329.33 329.48 330.5 328C339.67 316.47 348.83 304.94 358 293.41C359.02 292.12 360.03 290.84 361.05 289.55C362.36 287.87 363.67 286.18 364.98 284.5C367.49 281.32 369.99 278.14 372.5 274.95C373.66 273.47 374.82 271.98 375.99 270.5C403.32 235.83 430.66 201.16 458 166.49C458.98 165.33 459.97 164.16 460.95 163C461.47 162.08 461.98 161.17 462.5 160.25C425.15 128.17 387.8 96.08 350.45 64C348.95 61.34 342.56 62.64 339.75 62.63C328.75 62.58 317.75 62.49 306.75 62.49C266.58 62.49 226.41 62.48 186.25 62.52C176.75 62.54 167.25 62.6 157.75 62.57C154.16 62.56 149.56 61.31 147.54 65ZM337 102.47C360.67 122.57 384.33 142.66 408 162.75C407.82 165.52 405.34 167.36 403.77 169.52C400.46 174.04 393.18 185.15 389 188.01C386.67 191.01 384.33 194 382 197C381.5 197.67 381 198.34 380.5 199.01C377.98 202.15 375.46 205.3 372.94 208.44C370.44 211.61 367.95 214.78 365.45 217.95C363.95 219.78 362.45 221.62 360.95 223.45C357.45 227.95 353.95 232.45 350.45 236.95C346.78 241.61 343.11 246.28 339.44 250.94C335.44 255.94 331.44 260.94 327.44 265.94C319.94 275.44 312.44 284.94 304.94 294.44C303.78 295.94 302.61 297.45 301.45 298.95C300.11 300.61 298.78 302.28 297.44 303.94C296.11 305.61 294.78 307.28 293.44 308.94C292.11 310.61 290.77 312.27 289.44 313.94C286.77 317.27 284.11 320.61 281.44 323.94C276.47 330.29 271.49 336.65 266.51 343C266.34 343.17 266.17 343.35 266 343.52C264.84 345.01 263.68 346.51 262.52 348C259.02 352.5 255.51 357 252 361.5C251.25 362.15 250.5 362.8 249.75 363.45C248.67 362.31 247.58 361.17 246.5 360.04C244.66 357.69 242.82 355.35 240.99 353C198.66 299.5 156.33 246 114 192.5C106.33 182.75 98.67 173 91 163.25C102.83 153.17 114.67 143.08 126.5 133C128.49 131.33 130.49 129.67 132.48 128C133.32 127.32 134.16 126.64 135 125.96C136.32 124.81 137.64 123.65 138.96 122.5C146.8 115.82 154.65 109.13 162.5 102.45C220.67 102.46 278.83 102.47 337 102.47Z" fill="#fefefe" fill-rule="evenodd" stroke="#fefefe" stroke-width="0.25" stroke-linejoin="round"/>
<path d="M358.5 35.49C353.26 37.49 345.35 36.14 339.75 36.14C325.92 36.14 312.08 36.16 298.25 36.09C263.08 35.91 227.92 35.79 192.75 36.03C180.59 36.12 168.41 36.21 156.25 36.04C151.27 35.97 145.3 36.78 140.5 35.43C142.48 33.25 148.82 34.35 151.75 34.35C162.39 34.35 172.99 35.15 183.75 35C225.34 34.44 268.46 35 310.75 35C322.58 35 334.42 35 346.25 35C349.23 35 356.85 33.58 358.5 35.49ZM350.45 64C345.56 62.71 340.46 63.05 335.25 63.5C333.98 63.61 332.95 62.94 331.77 63.02C324.86 63.48 317.78 63.5 310.75 63.5C305.79 63.5 300.16 64.25 295.27 63.48C283.3 61.61 266.42 62.67 254.23 63.48C249.32 63.81 243.94 63 238.75 63C227.82 63 216.98 63.5 206.25 63.5C202.94 63.5 199.46 62.71 196.25 63C187.01 63.84 176.61 64.35 167.25 63.5C163.57 63.17 153.25 62.46 149.84 63.59C148.94 63.89 148.51 64.73 147.54 65C149.56 61.31 154.16 62.56 157.75 62.57C167.25 62.6 176.75 62.54 186.25 62.52C226.41 62.48 266.58 62.49 306.75 62.49C317.75 62.49 328.75 62.58 339.75 62.63C342.56 62.64 348.95 61.34 350.45 64ZM337 102.47C278.83 102.47 220.67 102.46 162.5 102.45C165.51 100.66 170.26 101.5 173.75 101.5C182.42 101.5 191.08 101.5 199.75 101.5C232.08 101.5 264.42 101.5 296.75 101.5C306.25 101.5 315.75 101.5 325.25 101.5C328.76 101.5 334.16 100.68 337 102.47ZM138.96 122.5C137.64 123.65 136.32 124.81 135 125.96C135 125.73 135 125.49 135 125.25C136.32 124.33 137.64 123.42 138.96 122.5ZM132.48 128C130.49 129.67 128.49 131.33 126.5 133C128.49 131.33 130.49 129.67 132.48 128ZM460.95 163C459.97 164.16 458.98 165.33 458 166.49C458.75 165.33 459.5 164.16 460.25 163C460.48 163 460.72 163 460.95 163ZM389 188.01C386.67 191.01 384.33 194 382 197C384.33 194 386.67 191.01 389 188.01ZM114 192.5C156.33 246 198.66 299.5 240.99 353C236.93 350.25 230.83 340.76 227.73 336.52C222.08 328.77 215.4 321.78 209.73 314.02C205.55 308.28 200.45 303.22 196.27 297.48C180.53 275.92 162.47 256.08 146.73 234.52C139.6 224.74 131.36 215.79 124.23 206.02C121.54 202.32 115.14 196.7 114 192.5ZM380.5 199.01C377.98 202.15 375.46 205.3 372.94 208.44C375.46 205.3 377.98 202.15 380.5 199.01ZM372.94 208.44C370.44 211.61 367.95 214.78 365.45 217.95C367.95 214.78 370.44 211.61 372.94 208.44ZM365.45 217.95C363.95 219.78 362.45 221.62 360.95 223.45C362.45 221.62 363.95 219.78 365.45 217.95ZM360.95 223.45C357.45 227.95 353.95 232.45 350.45 236.95C353.95 232.45 357.45 227.95 360.95 223.45ZM350.45 236.95C346.78 241.61 343.11 246.28 339.44 250.94C343.11 246.28 346.78 241.61 350.45 236.95ZM339.44 250.94C338.98 253.26 329.72 264.69 327.44 265.94C331.44 260.94 335.44 255.94 339.44 250.94ZM327.44 265.94C326.93 268.49 323.82 270.89 322.27 273.02C318.77 277.81 314.76 282.22 311.27 287.02C309.56 289.36 307.49 293.06 304.94 294.44C312.44 284.94 319.94 275.44 327.44 265.94ZM375.99 270.5C374.82 271.98 373.66 273.47 372.5 274.95C373.66 273.47 374.82 271.98 375.99 270.5ZM364.98 284.5C363.67 286.18 362.36 287.87 361.05 289.55C362.36 287.87 363.67 286.18 364.98 284.5ZM361.05 289.55C360.03 290.84 359.02 292.12 358 293.41C359.02 292.12 360.03 290.84 361.05 289.55ZM304.94 294.44C303.78 295.94 302.61 297.45 301.45 298.95C302.61 297.45 303.78 295.94 304.94 294.44ZM301.45 298.95C300.11 300.61 298.78 302.28 297.44 303.94C298.78 302.28 300.11 300.61 301.45 298.95ZM297.44 303.94C296.11 305.61 294.78 307.28 293.44 308.94C294.78 307.28 296.11 305.61 297.44 303.94ZM293.44 308.94C292.11 310.61 290.77 312.27 289.44 313.94C290.77 312.27 292.11 310.61 293.44 308.94ZM377 312.56C375.67 314.21 374.35 315.85 373.02 317.5C374.35 315.85 375.67 314.21 377 312.56ZM289.44 313.94C286.77 317.27 284.11 320.61 281.44 323.94C284.11 320.61 286.77 317.27 289.44 313.94ZM281.44 323.94C276.47 330.29 271.49 336.65 266.51 343C271.49 336.65 276.47 330.29 281.44 323.94ZM330.5 328C329.33 329.48 328.17 330.97 327 332.45C328.17 330.97 329.33 329.48 330.5 328ZM266 343.52C264.84 345.01 263.68 346.51 262.52 348C263.68 346.51 264.84 345.01 266 343.52ZM246.5 360.04C247.58 361.17 248.67 362.31 249.75 363.45C250.5 362.8 251.25 362.15 252 361.5C251.59 363.03 250.76 363.67 249.25 364C248.33 362.68 247.42 361.36 246.5 360.04ZM213.5 428.06C214.5 429.37 215.49 430.69 216.49 432C215.49 430.69 214.5 429.37 213.5 428.06Z" fill="#d2d3d5" fill-rule="evenodd" stroke="#d2d3d5" stroke-width="0.25" stroke-linejoin="round"/>
</svg>