<?xml version="1.0" encoding="UTF-8"?>
<svg xmlns="http://www.w3.org/2000/svg" viewBox="0 0 1265 949" width="1265" height="949">
<path d="M469.88 177.94C477.51 179.64 486.64 178.62 494.5 178.68C513.16 178.83 531.84 178.74 550.5 178.6C606.84 178.17 663.16 178.98 719.5 178.71C734.5 178.64 749.5 178.83 764.5 178.81C770.96 178.8 787.21 177.43 792.49 178.63C794.28 179.04 795.63 180.41 797.39 180.93C800.92 183.98 804.44 187.04 807.97 190.09C808.15 190.59 808.32 191.1 808.5 191.6C809.05 191.67 809.6 191.75 810.15 191.83C844.87 221.55 879.59 251.28 914.31 281C915.2 281.64 916.1 282.28 917 282.92C930.01 293.95 943.03 304.97 956.04 316C956.7 316.62 957.35 317.25 958 317.87C973 330.75 988 343.62 1003 356.5C1000.86 361.96 995.93 365.38 992.53 370.03C989.3 374.45 985.75 378.62 982.53 383.03C969.1 401.44 953.91 418.55 940.47 436.97C939.36 438.49 937.64 439.51 936.53 441.03C919.6 464.23 900.4 485.77 883.47 508.97C882.36 510.49 880.64 511.51 879.53 513.03C875.88 518.04 872.12 522.96 868.47 527.97C867.36 529.49 865.64 530.51 864.53 532.03C856.12 543.55 846.88 554.45 838.47 565.97C837.36 567.49 835.64 568.51 834.53 570.03C826.36 581.22 817.85 592.3 808.83 602.87C808.27 603.58 807.71 604.29 807.15 605C806.43 605.75 805.72 606.5 805 607.25C804.38 608.17 803.76 609.08 803.14 610C801.09 612.67 799.05 615.34 797 618.01C796.37 618.67 795.73 619.34 795.1 620C777.34 642.62 759.59 665.24 741.83 687.86C740.94 688.91 740.05 689.95 739.16 691C709.44 728.4 679.72 765.8 650 803.21C649.03 804.47 648.06 805.74 647.1 807C643.4 811.76 639.7 816.51 636 821.27C635.36 822.18 634.72 823.09 634.09 824C633.72 824.4 633.36 824.79 633 825.19C632 824.86 631 824.54 630 824.22C624.98 817.81 619.96 811.41 614.95 805C614.3 804.07 613.65 803.13 613 802.2C582.98 764.47 552.96 726.73 522.94 689C522.29 688.11 521.65 687.21 521 686.32C520.63 685.88 520.25 685.44 519.88 685C519.31 684.29 518.74 683.58 518.17 682.86C508.76 670.91 499.35 658.95 489.94 647C489.3 646.09 488.65 645.17 488 644.26C484.83 641.6 482.86 638.31 480.47 635.03C476.7 629.86 472.24 625.2 468.47 620.03C457.7 605.28 445.23 591.78 434.47 577.03C432.11 573.8 428.89 571.2 426.53 567.97C423.15 563.33 419.85 558.66 416.47 554.03C415.36 552.51 413.64 551.49 412.53 549.97C385.31 512.66 354.33 478.16 326.89 441C326.26 440.11 325.63 439.21 325 438.32C320.66 434.5 317.83 429.63 314.47 425.03C311.96 421.59 308.98 418.48 306.47 415.03C304.39 412.18 301.61 409.82 299.53 406.97C292.11 396.8 283.89 387.2 276.47 377.03C272.7 371.86 268.24 367.2 264.47 362.03C263.56 360.79 261.64 359.83 261.19 358.31C260.92 357.4 261.24 356.74 261.27 355.85C262.09 355.11 262.91 354.38 263.73 353.65C325.74 300.71 387.75 247.78 449.75 194.84C451.62 194.22 451.24 194.55 451.98 192.84C455.91 189.53 459.83 186.21 463.75 182.9C464.33 182.77 464.92 182.64 465.5 182.5C465.65 182.08 465.81 181.65 465.96 181.23C467.27 180.13 468.57 179.04 469.88 177.94ZM481.21 221C454.47 244 427.74 267.01 401 290.01C400.1 290.68 399.21 291.34 398.31 292C371.21 315.11 344.1 338.22 317 361.33C316.78 362.05 316.56 362.78 316.34 363.5C316.56 363.57 316.78 363.65 317 363.72C323.02 371.15 329.04 378.57 335.06 386C335.71 386.94 336.35 387.89 337 388.83C343.7 397.22 350.39 405.61 357.09 414C357.73 414.91 358.36 415.81 359 416.72C373.36 434.81 387.72 452.91 402.08 471C402.72 471.92 403.36 472.84 404 473.76C414.36 486.84 424.71 499.92 435.07 513C435.71 513.66 436.36 514.33 437 514.99C463.02 547.99 489.05 581 515.07 614C515.66 614.72 516.25 615.44 516.83 616.17C555.06 664.44 593.28 712.72 631.5 761C638.55 757.47 645.82 741.49 653 735.82C653.62 734.88 654.25 733.94 654.87 733C667.91 716.6 680.96 700.21 694 683.81C694.65 682.87 695.29 681.94 695.94 681C702.96 672.25 709.98 663.51 717 654.76C717.63 653.84 718.27 652.92 718.9 652C719.27 651.6 719.63 651.2 720 650.8C720.64 649.87 721.28 648.93 721.92 648C725.28 643.92 728.64 639.84 732 635.77C732.63 634.84 733.26 633.92 733.9 633C736.93 629.26 739.97 625.52 743 621.78C743.62 620.86 744.25 619.93 744.87 619C745.58 618.25 746.29 617.49 747 616.74C748.01 615.5 749.01 614.26 750.02 613.03C750.98 611.69 751.95 610.34 752.91 609C757.27 603.58 761.64 598.16 766 592.73C766.63 591.82 767.26 590.91 767.89 590C768.59 589.22 769.3 588.45 770 587.67C770.65 586.78 771.3 585.89 771.96 585C772.3 584.63 772.65 584.26 773 583.89C774.02 582.61 775.05 581.34 776.07 580.06C776.7 579.04 777.33 578.02 777.96 577C783.97 569.61 789.99 562.22 796 554.83C796.66 553.89 797.32 552.94 797.97 552C798.65 551.28 799.32 550.57 800 549.85C800.66 548.9 801.32 547.95 801.97 547C802.65 546.27 803.32 545.54 804 544.81C804.63 543.88 805.25 542.94 805.88 542C806.25 541.62 806.63 541.23 807 540.85C807.64 539.9 808.28 538.95 808.91 538C810.94 535.59 812.97 533.17 815 530.76C815.63 529.84 816.25 528.92 816.88 528C820.25 523.9 823.63 519.8 827 515.7C827.64 514.8 828.29 513.9 828.93 513C829.29 512.61 829.64 512.22 830 511.83C830.97 510.56 831.93 509.28 832.9 508C833.27 507.6 833.63 507.2 834 506.8C834.63 505.87 835.26 504.93 835.89 504C843.93 493.92 851.96 483.84 860 473.76C860.66 472.84 861.32 471.92 861.98 471C867 463.62 873.21 457.17 878.47 449.97C881.15 446.3 883.42 442.72 887 439.76C887.61 438.84 888.23 437.92 888.84 437C895.48 428.4 902.13 419.8 908.53 411.03C912.14 406.08 916.86 401.92 920.47 396.97C926.14 389.2 934.86 375.65 942 369.76C942.64 368.84 943.29 367.92 943.93 367C944.95 365.17 945.98 363.33 947 361.5C897.05 318.94 847.09 276.39 797.14 233.83C796.43 233.26 795.71 232.69 795 232.11C791.25 228.74 787.5 225.37 783.75 222C782.83 221.36 781.92 220.71 781 220.07C780.65 219.71 780.29 219.36 779.94 219C777.01 216.53 768.77 217.98 764.5 217.9C749.84 217.62 735.16 217.76 720.5 217.68C662.85 217.38 605.15 217.49 547.5 217.73C531.17 217.79 514.83 217.9 498.5 217.78C492.85 217.73 484.76 215.73 481.21 221ZM643.11 276.17C643.37 276.17 643.62 276.17 643.88 276.17C647.54 276.17 651.21 276.17 654.87 276.17C655.22 276.17 655.57 276.17 655.92 276.17C688.66 276.17 721.41 276.17 754.15 276.17C758.31 275.87 760.52 275.76 763.28 279C764.19 279.65 765.09 280.3 766 280.95C767.04 281.97 768.09 282.98 769.13 284C770.42 285 771.71 285.99 773 286.99C785.42 297.66 797.84 308.33 810.26 319C811.17 319.64 812.09 320.27 813 320.91C823.1 329.61 833.2 338.3 843.3 347C844.2 347.64 845.1 348.28 846 348.92C851.77 353.95 857.54 358.97 863.3 364C864.29 365.33 865.28 366.67 866.26 368C834.17 408.74 802.09 449.48 770 490.23C769.36 491.15 768.73 492.08 768.09 493C765.06 496.74 762.03 500.48 759 504.22C758.34 505.15 757.69 506.07 757.03 507C756.69 507.36 756.34 507.73 756 508.09C755.01 509.4 754.02 510.7 753.03 512C751.02 514.41 749.01 516.82 747 519.23C746.33 520.16 745.67 521.08 745 522C744.33 522.71 743.67 523.42 743 524.13C742.34 525.09 741.67 526.04 741.01 527C740.34 527.75 739.67 528.51 739 529.26C738.34 530.17 737.69 531.09 737.03 532C736.69 532.38 736.34 532.77 736 533.15C735.34 534.1 734.69 535.05 734.03 536C733.02 537.07 732.01 538.14 731 539.21C730.36 540.14 729.73 541.07 729.09 542C727.39 544.07 725.7 546.14 724 548.21C723.34 549.14 722.67 550.07 722.01 551C721.67 551.38 721.34 551.76 721 552.15C720.35 553.1 719.7 554.05 719.05 555C714.37 560.73 709.68 566.46 705 572.19C704.34 573.13 703.69 574.06 703.03 575C702.69 575.39 702.34 575.78 702 576.16C701.03 577.44 700.06 578.72 699.09 580C696.06 583.72 693.03 587.44 690 591.16C689.33 592.11 688.67 593.05 688 594C687.33 594.73 686.67 595.46 686 596.19C685.36 597.13 684.71 598.06 684.07 599C683.05 600.1 682.02 601.2 681 602.29C680.37 603.2 679.74 604.1 679.1 605C678.4 605.75 677.7 606.5 677 607.25C676.36 608.16 675.71 609.08 675.07 610C674.71 610.39 674.36 610.78 674 611.17C673.37 612.11 672.74 613.06 672.11 614C671.4 614.76 670.7 615.52 670 616.28C669.35 617.19 668.71 618.09 668.06 619C667.71 619.38 667.35 619.76 667 620.14C666.02 621.42 665.03 622.71 664.05 624C661.03 627.74 658.02 631.48 655 635.23C654.34 636.15 653.69 637.08 653.03 638C647.69 644.74 642.34 651.48 637 658.21C636.34 659.14 635.67 660.07 635.01 661C634.34 661.71 633.67 662.42 633 663.13C631.67 662.14 630.33 661.15 629 660.16C627.31 658.1 625.62 656.05 623.92 654C623.28 653.08 622.64 652.15 622 651.23C618.99 647.49 615.98 643.74 612.97 640C611.98 638.71 610.99 637.42 610 636.14C609.65 635.76 609.3 635.38 608.94 635C608.3 634.09 607.65 633.18 607 632.27C603.66 628.18 600.32 624.09 596.98 620C596.32 619.07 595.66 618.14 595 617.21C594.64 616.81 594.27 616.4 593.91 616C593.27 615.08 592.64 614.16 592 613.24C591.33 612.5 590.66 611.75 589.98 611C589.32 610.05 588.66 609.1 588 608.15C587.32 607.44 586.63 606.72 585.95 606C585.3 605.04 584.65 604.09 584 603.13C583.65 602.76 583.29 602.38 582.94 602C582.29 601.34 581.65 600.68 581 600.02C579.98 598.68 578.97 597.34 577.95 596C577.3 595.06 576.65 594.11 576 593.17C575.32 592.45 574.64 591.72 573.96 591C573.31 590.06 572.65 589.12 572 588.18C569.99 585.79 567.98 583.39 565.98 581C565.32 580.05 564.66 579.1 564 578.15C563.64 577.77 563.28 577.38 562.92 577C561.95 575.69 560.97 574.37 560 573.06C559.66 572.71 559.32 572.35 558.98 572C558.32 571.07 557.66 570.15 557 569.22C556.32 568.48 555.64 567.74 554.96 567C554.31 566.08 553.65 565.15 553 564.23C550.99 561.82 548.97 559.41 546.96 557C546.3 556.08 545.65 555.15 545 554.23C544.32 553.49 543.65 552.74 542.97 552C542.32 551.06 541.66 550.12 541 549.18C539.31 547.12 537.62 545.06 535.92 543C535.28 542.06 534.64 541.13 534 540.19C533.64 539.8 533.27 539.4 532.91 539C532.31 538.29 531.71 537.59 531.12 536.88C530.44 535.89 529.77 534.9 529.1 533.91C528.4 533.01 527.7 532.11 527 531.2C526.31 530.47 525.62 529.73 524.93 529C524.34 528.28 523.76 527.56 523.17 526.84C522.11 525.56 521.05 524.28 520 523C519.33 522.06 518.67 521.13 518 520.19C516.31 518.13 514.62 516.06 512.93 514C512.29 513.09 511.64 512.18 511 511.27C510.33 510.51 509.66 509.76 508.99 509C508 507.72 507 506.44 506 505.16C505.66 504.77 505.32 504.39 504.98 504C504.32 503.06 503.66 502.11 503 501.17C502.32 500.45 501.64 499.72 500.96 499C500.31 498.07 499.65 497.13 499 496.2C498.33 495.47 497.66 494.73 496.98 494C496.32 493.05 495.66 492.1 495 491.14C494.65 490.76 494.29 490.38 493.94 490C492.96 488.7 491.98 487.41 491 486.11C490.66 485.74 490.32 485.37 489.98 485C489.32 484.04 488.66 483.09 488 482.13C487.66 481.75 487.31 481.38 486.97 481C485.98 479.69 484.99 478.39 484 477.08C481.99 474.72 479.99 472.36 477.98 470C477.32 469.04 476.66 468.08 476 467.12C475.65 466.75 475.3 466.37 474.96 466C474.3 465.07 473.65 464.15 473 463.22C472.65 462.81 472.3 462.41 471.95 462C471.3 461.07 470.65 460.14 470 459.21C469.3 458.48 468.61 457.74 467.91 457C467.28 456.06 466.64 455.12 466 454.18C465.65 453.79 465.3 453.39 464.96 453C463.97 451.73 462.99 450.45 462 449.18C458.97 445.45 455.93 441.73 452.9 438C452.26 437.08 451.63 436.16 451 435.24C450.32 434.49 449.65 433.75 448.97 433C448.32 432.05 447.66 431.1 447 430.15C446.32 429.44 445.64 428.72 444.96 428C444.31 427.08 443.65 426.16 443 425.24C442.63 424.83 442.27 424.41 441.9 424C441.27 423.11 440.63 422.22 440 421.33C439.3 420.55 438.6 419.78 437.9 419C437.26 418.07 436.63 417.15 436 416.22C423 399.98 410 383.74 397 367.5C407.81 356.69 419.71 346.42 431.97 337.47C434.05 335.95 435.49 333.6 437.5 332C442.04 328.39 446.33 324.34 451 320.9C451.93 320.26 452.86 319.63 453.8 319C457.2 315.98 460.6 312.96 464 309.94C465.27 308.96 466.54 307.98 467.8 307C469.2 305.65 470.6 304.31 472 302.96C472.92 302.31 473.84 301.65 474.76 301C480.18 296.32 485.59 291.63 491 286.95C492.28 285.96 493.56 284.98 494.84 284C495.89 282.99 496.95 281.98 498 280.98C498.92 280.32 499.84 279.66 500.75 279C501.5 278.29 502.25 277.57 503 276.86C549.7 276.63 596.41 276.4 643.11 276.17Z" fill="#ffffff" fill-rule="evenodd" stroke="#ffffff" stroke-width="0.25" stroke-linejoin="round"/>
<path d="M797.39 180.93C795.63 180.41 794.28 179.04 792.49 178.63C787.21 177.43 770.96 178.8 764.5 178.81C749.5 178.83 734.5 178.64 719.5 178.71C663.16 178.98 606.84 178.17 550.5 178.6C531.84 178.74 513.16 178.83 494.5 178.68C486.64 178.62 477.51 179.64 469.88 177.94C474.51 174.84 483.82 176.36 489.5 176.19C505.83 175.71 522.16 175.57 538.5 175.78C600.18 176.6 661.8 175.6 723.5 175.7C741.5 175.73 759.5 175.79 777.5 175.87C783.81 175.89 794.04 174.64 797.39 180.93ZM465.96 181.23C465.81 181.65 465.65 182.08 465.5 182.5C464.92 182.64 464.33 182.77 463.75 182.9C464.49 182.34 465.23 181.79 465.96 181.23ZM807.97 190.09C808.7 190.67 809.42 191.25 810.15 191.83C809.6 191.75 809.05 191.67 808.5 191.6C808.32 191.1 808.15 190.59 807.97 190.09ZM451.98 192.84C451.24 194.55 451.62 194.22 449.75 194.84C450.5 194.17 451.24 193.5 451.98 192.84ZM779.94 219C712.46 219 644.98 219 577.5 219C557.17 219 536.83 219 516.5 219C509.17 219 501.83 219 494.5 219C491.55 219 487.5 218.28 484.69 219.19C483.41 219.6 482.55 220.6 481.21 221C484.76 215.73 492.85 217.73 498.5 217.78C514.83 217.9 531.17 217.79 547.5 217.73C605.15 217.49 662.85 217.38 720.5 217.68C735.16 217.76 749.84 217.62 764.5 217.9C768.77 217.98 777.01 216.53 779.94 219ZM781 220.07C781.92 220.71 782.83 221.36 783.75 222C782.83 221.36 781.92 220.71 781 220.07ZM795 232.11C795.71 232.69 796.43 233.26 797.14 233.83C796.43 233.26 795.71 232.69 795 232.11ZM643.11 276.17C596.41 276.4 549.7 276.63 503 276.86C506.26 275.1 511.64 276 515.5 276C524.5 276 533.5 276 542.5 276C564.5 276 586.5 276 608.5 276C619.99 276 631.65 275.44 643.11 276.17ZM643.88 276.17C647.54 276.17 651.21 276.17 654.87 276.17C651.21 276.17 647.54 276.17 643.88 276.17ZM655.92 276.17C688.66 276.17 721.41 276.17 754.15 276.17C721.41 276.17 688.66 276.17 655.92 276.17ZM500.75 279C499.84 279.66 498.92 280.32 498 280.98C498.92 280.32 499.84 279.66 500.75 279ZM763.28 279C764.19 279.65 765.09 280.3 766 280.95C765.09 280.3 764.19 279.65 763.28 279ZM914.31 281C915.2 281.64 916.1 282.28 917 282.92C916.1 282.28 915.2 281.64 914.31 281ZM494.84 284C493.56 284.98 492.28 285.96 491 286.95C492.28 285.96 493.56 284.98 494.84 284ZM769.13 284C770.42 285 771.71 285.99 773 286.99C771.71 285.99 770.42 285 769.13 284ZM401 290.01C400.1 290.68 399.21 291.34 398.31 292C399.21 291.34 400.1 290.68 401 290.01ZM474.76 301C473.84 301.65 472.92 302.31 472 302.96C472.92 302.31 473.84 301.65 474.76 301ZM467.8 307C466.54 307.98 465.27 308.96 464 309.94C465.27 308.96 466.54 307.98 467.8 307ZM956.04 316C956.7 316.62 957.35 317.25 958 317.87C957.35 317.25 956.7 316.62 956.04 316ZM453.8 319C452.86 319.63 451.93 320.26 451 320.9C451.93 320.26 452.86 319.63 453.8 319ZM810.26 319C811.17 319.64 812.09 320.27 813 320.91C812.09 320.27 811.17 319.64 810.26 319ZM843.3 347C844.2 347.64 845.1 348.28 846 348.92C845.1 348.28 844.2 347.64 843.3 347ZM263.73 353.65C262.91 354.38 262.09 355.11 261.27 355.85C261.27 355.4 261.28 354.95 261.29 354.5C262.1 354.22 262.92 353.93 263.73 353.65ZM317 361.33C317 362.13 317 362.92 317 363.72C316.78 363.65 316.56 363.57 316.34 363.5C316.56 362.78 316.78 362.05 317 361.33ZM863.3 364C865.49 364.7 866 365.51 867 367.5C866.75 367.67 866.51 367.83 866.26 368C865.28 366.67 864.29 365.33 863.3 364ZM943.93 367C943.29 367.92 942.64 368.84 942 369.76C942.64 368.84 943.29 367.92 943.93 367ZM335.06 386C335.71 386.94 336.35 387.89 337 388.83C336.35 387.89 335.71 386.94 335.06 386ZM357.09 414C357.73 414.91 358.36 415.81 359 416.72C358.36 415.81 357.73 414.91 357.09 414ZM436 416.22C436.63 417.15 437.26 418.07 437.9 419C437.26 418.07 436.63 417.15 436 416.22ZM440 421.33C440.63 422.22 441.27 423.11 441.9 424C441.27 423.11 440.63 422.22 440 421.33ZM443 425.24C443.65 426.16 444.31 427.08 444.96 428C444.31 427.08 443.65 426.16 443 425.24ZM447 430.15C447.66 431.1 448.32 432.05 448.97 433C448.32 432.05 447.66 431.1 447 430.15ZM451 435.24C451.63 436.16 452.26 437.08 452.9 438C452.26 437.08 451.63 436.16 451 435.24ZM888.84 437C888.23 437.92 887.61 438.84 887 439.76C887.61 438.84 888.23 437.92 888.84 437ZM325 438.32C325.63 439.21 326.26 440.11 326.89 441C326.26 440.11 325.63 439.21 325 438.32ZM462 449.18C462.99 450.45 463.97 451.73 464.96 453C463.97 451.73 462.99 450.45 462 449.18ZM466 454.18C466.64 455.12 467.28 456.06 467.91 457C467.28 456.06 466.64 455.12 466 454.18ZM470 459.21C470.65 460.14 471.3 461.07 471.95 462C471.3 461.07 470.65 460.14 470 459.21ZM473 463.22C473.65 464.15 474.3 465.07 474.96 466C474.3 465.07 473.65 464.15 473 463.22ZM476 467.12C476.66 468.08 477.32 469.04 477.98 470C477.32 469.04 476.66 468.08 476 467.12ZM402.08 471C402.72 471.92 403.36 472.84 404 473.76C403.36 472.84 402.72 471.92 402.08 471ZM861.98 471C861.32 471.92 860.66 472.84 860 473.76C860.66 472.84 861.32 471.92 861.98 471ZM484 477.08C484.99 478.39 485.98 479.69 486.97 481C485.98 479.69 484.99 478.39 484 477.08ZM488 482.13C488.66 483.09 489.32 484.04 489.98 485C489.32 484.04 488.66 483.09 488 482.13ZM491 486.11C491.98 487.41 492.96 488.7 493.94 490C492.96 488.7 491.98 487.41 491 486.11ZM770 490.23C769.36 491.15 768.73 492.08 768.09 493C768.73 492.08 769.36 491.15 770 490.23ZM495 491.14C495.66 492.1 496.32 493.05 496.98 494C496.32 493.05 495.66 492.1 495 491.14ZM499 496.2C499.65 497.13 500.31 498.07 500.96 499C500.31 498.07 499.65 497.13 499 496.2ZM503 501.17C503.66 502.11 504.32 503.06 504.98 504C504.32 503.06 503.66 502.11 503 501.17ZM759 504.22C758.34 505.15 757.69 506.07 757.03 507C757.69 506.07 758.34 505.15 759 504.22ZM835.89 504C835.26 504.93 834.63 505.87 834 506.8C834.63 505.87 835.26 504.93 835.89 504ZM506 505.16C507 506.44 508 507.72 508.99 509C508 507.72 507 506.44 506 505.16ZM756 508.09C755.01 509.4 754.02 510.7 753.03 512C754.02 510.7 755.01 509.4 756 508.09ZM832.9 508C831.93 509.28 830.97 510.56 830 511.83C830.97 510.56 831.93 509.28 832.9 508ZM511 511.27C511.64 512.18 512.29 513.09 512.93 514C512.29 513.09 511.64 512.18 511 511.27ZM435.07 513C435.71 513.66 436.36 514.33 437 514.99C436.36 514.33 435.71 513.66 435.07 513ZM828.93 513C828.29 513.9 827.64 514.8 827 515.7C827.64 514.8 828.29 513.9 828.93 513ZM747 519.23C746.33 520.16 745.67 521.08 745 522C745.67 521.08 746.33 520.16 747 519.23ZM518 520.19C518.67 521.13 519.33 522.06 520 523C519.33 522.06 518.67 521.13 518 520.19ZM743 524.13C742.34 525.09 741.67 526.04 741.01 527C741.67 526.04 742.34 525.09 743 524.13ZM523.17 526.84C523.76 527.56 524.34 528.28 524.93 529C524.34 528.28 523.76 527.56 523.17 526.84ZM816.88 528C816.25 528.92 815.63 529.84 815 530.76C815.63 529.84 816.25 528.92 816.88 528ZM739 529.26C738.34 530.17 737.69 531.09 737.03 532C737.69 531.09 738.34 530.17 739 529.26ZM527 531.2C527.7 532.11 528.4 533.01 529.1 533.91C528.4 533.01 527.7 532.11 527 531.2ZM736 533.15C735.34 534.1 734.69 535.05 734.03 536C734.69 535.05 735.34 534.1 736 533.15ZM529.1 533.91C529.77 534.9 530.44 535.89 531.12 536.88C529.47 535.93 529.49 535.79 529.1 533.91ZM531.12 536.88C531.71 537.59 532.31 538.29 532.91 539C532.31 538.29 531.71 537.59 531.12 536.88ZM808.91 538C808.28 538.95 807.64 539.9 807 540.85C807.64 539.9 808.28 538.95 808.91 538ZM731 539.21C730.36 540.14 729.73 541.07 729.09 542C729.73 541.07 730.36 540.14 731 539.21ZM534 540.19C534.64 541.13 535.28 542.06 535.92 543C535.28 542.06 534.64 541.13 534 540.19ZM805.88 542C805.25 542.94 804.63 543.88 804 544.81C804.63 543.88 805.25 542.94 805.88 542ZM801.97 547C801.32 547.95 800.66 548.9 800 549.85C800.66 548.9 801.32 547.95 801.97 547ZM724 548.21C723.34 549.14 722.67 550.07 722.01 551C722.67 550.07 723.34 549.14 724 548.21ZM541 549.18C541.66 550.12 542.32 551.06 542.97 552C542.32 551.06 541.66 550.12 541 549.18ZM721 552.15C720.35 553.1 719.7 554.05 719.05 555C719.7 554.05 720.35 553.1 721 552.15ZM797.97 552C797.32 552.94 796.66 553.89 796 554.83C796.66 553.89 797.32 552.94 797.97 552ZM545 554.23C545.65 555.15 546.3 556.08 546.96 557C546.3 556.08 545.65 555.15 545 554.23ZM553 564.23C553.65 565.15 554.31 566.08 554.96 567C554.31 566.08 553.65 565.15 553 564.23ZM557 569.22C557.66 570.15 558.32 571.07 558.98 572C558.32 571.07 557.66 570.15 557 569.22ZM705 572.19C704.34 573.13 703.69 574.06 703.03 575C703.69 574.06 704.34 573.13 705 572.19ZM560 573.06C560.97 574.37 561.95 575.69 562.92 577C561.95 575.69 560.97 574.37 560 573.06ZM702 576.16C701.03 577.44 700.06 578.72 699.09 580C700.06 578.72 701.03 577.44 702 576.16ZM777.96 577C777.33 578.02 776.7 579.04 776.07 580.06C776.7 579.04 777.33 578.02 777.96 577ZM564 578.15C564.66 579.1 565.32 580.05 565.98 581C565.32 580.05 564.66 579.1 564 578.15ZM776.07 580.06C775.05 581.34 774.02 582.61 773 583.89C774.02 582.61 775.05 581.34 776.07 580.06ZM771.96 585C771.3 585.89 770.65 586.78 770 587.67C770.65 586.78 771.3 585.89 771.96 585ZM572 588.18C572.65 589.12 573.31 590.06 573.96 591C573.31 590.06 572.65 589.12 572 588.18ZM767.89 590C767.26 590.91 766.63 591.82 766 592.73C766.63 591.82 767.26 590.91 767.89 590ZM690 591.16C689.33 592.11 688.67 593.05 688 594C688.67 593.05 689.33 592.11 690 591.16ZM576 593.17C576.65 594.11 577.3 595.06 577.95 596C577.3 595.06 576.65 594.11 576 593.17ZM686 596.19C685.36 597.13 684.71 598.06 684.07 599C684.71 598.06 685.36 597.13 686 596.19ZM581 600.02C581.65 600.68 582.29 601.34 582.94 602C582.29 601.34 581.65 600.68 581 600.02ZM681 602.29C680.37 603.2 679.74 604.1 679.1 605C679.74 604.1 680.37 603.2 681 602.29ZM584 603.13C584.65 604.09 585.3 605.04 585.95 606C585.3 605.04 584.65 604.09 584 603.13ZM808.83 602.87C808.27 603.58 807.71 604.29 807.15 605C807.71 604.29 808.27 603.58 808.83 602.87ZM677 607.25C676.36 608.16 675.71 609.08 675.07 610C675.71 609.08 676.36 608.16 677 607.25ZM805 607.25C804.38 608.17 803.76 609.08 803.14 610C803.76 609.08 804.38 608.17 805 607.25ZM588 608.15C588.66 609.1 589.32 610.05 589.98 611C589.32 610.05 588.66 609.1 588 608.15ZM752.91 609C751.95 610.34 750.98 611.69 750.02 613.03C750.98 611.69 751.95 610.34 752.91 609ZM674 611.17C673.37 612.11 672.74 613.06 672.11 614C672.74 613.06 673.37 612.11 674 611.17ZM592 613.24C592.64 614.16 593.27 615.08 593.91 616C593.27 615.08 592.64 614.16 592 613.24ZM750.02 613.03C749.01 614.26 748.01 615.5 747 616.74C748.01 615.5 749.01 614.26 750.02 613.03ZM515.07 614C515.66 614.72 516.25 615.44 516.83 616.17C516.25 615.44 515.66 614.72 515.07 614ZM670 616.28C669.35 617.19 668.71 618.09 668.06 619C668.71 618.09 669.35 617.19 670 616.28ZM595 617.21C595.66 618.14 596.32 619.07 596.98 620C596.32 619.07 595.66 618.14 595 617.21ZM797 618.01C796.37 618.67 795.73 619.34 795.1 620C795.73 619.34 796.37 618.67 797 618.01ZM744.87 619C744.25 619.93 743.62 620.86 743 621.78C743.62 620.86 744.25 619.93 744.87 619ZM667 620.14C666.02 621.42 665.03 622.71 664.05 624C665.03 622.71 666.02 621.42 667 620.14ZM607 632.27C607.65 633.18 608.3 634.09 608.94 635C608.3 634.09 607.65 633.18 607 632.27ZM733.9 633C733.26 633.92 732.63 634.84 732 635.77C732.63 634.84 733.26 633.92 733.9 633ZM655 635.23C654.34 636.15 653.69 637.08 653.03 638C653.69 637.08 654.34 636.15 655 635.23ZM610 636.14C610.99 637.42 611.98 638.71 612.97 640C611.98 638.71 610.99 637.42 610 636.14ZM488 644.26C488.65 645.17 489.3 646.09 489.94 647C489.3 646.09 488.65 645.17 488 644.26ZM721.92 648C721.28 648.93 720.64 649.87 720 650.8C720.64 649.87 721.28 648.93 721.92 648ZM622 651.23C622.64 652.15 623.28 653.08 623.92 654C623.28 653.08 622.64 652.15 622 651.23ZM718.9 652C718.27 652.92 717.63 653.84 717 654.76C717.63 653.84 718.27 652.92 718.9 652ZM637 658.21C636.34 659.14 635.67 660.07 635.01 661C635.67 660.07 636.34 659.14 637 658.21ZM629 660.16C630.33 661.15 631.67 662.14 633 663.13C632.83 663.42 632.67 663.71 632.5 664C630.42 662.96 629.67 662.44 629 660.16ZM695.94 681C695.29 681.94 694.65 682.87 694 683.81C694.65 682.87 695.29 681.94 695.94 681ZM518.17 682.86C518.74 683.58 519.31 684.29 519.88 685C519.31 684.29 518.74 683.58 518.17 682.86ZM521 686.32C521.65 687.21 522.29 688.11 522.94 689C522.29 688.11 521.65 687.21 521 686.32ZM741.83 687.86C740.94 688.91 740.05 689.95 739.16 691C740.05 689.95 740.94 688.91 741.83 687.86ZM654.87 733C654.25 733.94 653.62 734.88 653 735.82C653.62 734.88 654.25 733.94 654.87 733ZM613 802.2C613.65 803.13 614.3 804.07 614.95 805C614.3 804.07 613.65 803.13 613 802.2ZM650 803.21C649.03 804.47 648.06 805.74 647.1 807C648.06 805.74 649.03 804.47 650 803.21ZM636 821.27C635.36 822.18 634.72 823.09 634.09 824C634.72 823.09 635.36 822.18 636 821.27ZM630 824.22C631 824.54 632 824.86 633 825.19C632 825.29 631 825.4 630 825.5C630 825.07 630 824.65 630 824.22Z" fill="#d4d5d6" fill-rule="evenodd" stroke="#d4d5d6" stroke-width="0.25" stroke-linejoin="round"/>
</svg>